<svg id="visual" viewBox="0 0 1600 900" width="1600" height="900" xmlns="http://www.w3.org/2000/svg" xmlns:xlink="http://www.w3.org/1999/xlink" version="1.1"><rect x="0" y="0" width="1600" height="900" fill="#001220"></rect><path d="M0 332L38.2 338.5C76.3 345 152.7 358 228.8 345.7C305 333.3 381 295.7 457.2 291.8C533.3 288 609.7 318 685.8 321.7C762 325.3 838 302.7 914.2 305.7C990.3 308.7 1066.7 337.3 1142.8 335.3C1219 333.3 1295 300.7 1371.2 301.3C1447.3 302 1523.7 336 1561.8 353L1600 370L1600 0L1561.8 0C1523.7 0 1447.3 0 1371.2 0C1295 0 1219 0 1142.8 0C1066.7 0 990.3 0 914.2 0C838 0 762 0 685.8 0C609.7 0 533.3 0 457.2 0C381 0 305 0 228.8 0C152.7 0 76.3 0 38.2 0L0 0Z" fill="#ff9e61"></path><path d="M0 249L38.2 254.3C76.3 259.7 152.7 270.3 228.8 265.7C305 261 381 241 457.2 244.3C533.3 247.7 609.7 274.3 685.8 282.3C762 290.3 838 279.7 914.2 264.5C990.3 249.3 1066.7 229.7 1142.8 222.5C1219 215.3 1295 220.7 1371.2 217.5C1447.3 214.3 1523.7 202.7 1561.8 196.8L1600 191L1600 0L1561.8 0C1523.7 0 1447.3 0 1371.2 0C1295 0 1219 0 1142.8 0C1066.7 0 990.3 0 914.2 0C838 0 762 0 685.8 0C609.7 0 533.3 0 457.2 0C381 0 305 0 228.8 0C152.7 0 76.3 0 38.2 0L0 0Z" fill="#f7805d"></path><path d="M0 165L38.2 169C76.3 173 152.7 181 228.8 177.7C305 174.3 381 159.7 457.2 159.5C533.3 159.3 609.7 173.7 685.8 174C762 174.3 838 160.7 914.2 155C990.3 149.3 1066.7 151.7 1142.8 159.3C1219 167 1295 180 1371.2 180.8C1447.3 181.7 1523.7 170.3 1561.8 164.7L1600 159L1600 0L1561.8 0C1523.7 0 1447.3 0 1371.2 0C1295 0 1219 0 1142.8 0C1066.7 0 990.3 0 914.2 0C838 0 762 0 685.8 0C609.7 0 533.3 0 457.2 0C381 0 305 0 228.8 0C152.7 0 76.3 0 38.2 0L0 0Z" fill="#eb625e"></path><path d="M0 176L38.2 161.8C76.3 147.7 152.7 119.3 228.8 114.8C305 110.3 381 129.7 457.2 137.8C533.3 146 609.7 143 685.8 143.3C762 143.7 838 147.3 914.2 148C990.3 148.7 1066.7 146.3 1142.8 146.7C1219 147 1295 150 1371.2 143.2C1447.3 136.3 1523.7 119.7 1561.8 111.3L1600 103L1600 0L1561.8 0C1523.7 0 1447.3 0 1371.2 0C1295 0 1219 0 1142.8 0C1066.7 0 990.3 0 914.2 0C838 0 762 0 685.8 0C609.7 0 533.3 0 457.2 0C381 0 305 0 228.8 0C152.7 0 76.3 0 38.2 0L0 0Z" fill="#db4462"></path><path d="M0 99L38.2 99.5C76.3 100 152.7 101 228.8 96.5C305 92 381 82 457.2 75.7C533.3 69.3 609.7 66.7 685.8 62.7C762 58.7 838 53.3 914.2 51C990.3 48.7 1066.7 49.3 1142.8 57.7C1219 66 1295 82 1371.2 91.3C1447.3 100.7 1523.7 103.3 1561.8 104.7L1600 106L1600 0L1561.8 0C1523.7 0 1447.3 0 1371.2 0C1295 0 1219 0 1142.8 0C1066.7 0 990.3 0 914.2 0C838 0 762 0 685.8 0C609.7 0 533.3 0 457.2 0C381 0 305 0 228.8 0C152.7 0 76.3 0 38.2 0L0 0Z" fill="#c62368"></path></svg>